<svg width="440" height="460" viewBox="0 0 440 460" fill="none" xmlns="http://www.w3.org/2000/svg">
<g clip-path="url(#clip0_41_1100)">
<path fill-rule="evenodd" clip-rule="evenodd" d="M134.028 241.307C127.777 235.077 127.777 224.923 134.028 218.693C140.257 212.443 150.412 212.443 156.641 218.693L195.105 257.157L283.361 168.901C289.591 162.672 299.745 162.672 305.975 168.901C312.225 175.152 312.225 185.285 305.975 191.536L206.433 291.099C200.183 297.349 190.049 297.349 183.799 291.099L134.028 241.307Z" fill="black"/>
<path fill-rule="evenodd" clip-rule="evenodd" d="M192.95 11.8667C200.118 4.69869 209.846 0.666687 220 0.666687C230.155 0.666687 239.883 4.69869 247.051 11.8667L277.878 42.6934C279.286 44.1014 281.291 44.7627 283.275 44.4427L326.326 37.6374C336.352 36.0374 346.592 38.512 354.806 44.464C362.998 50.4374 368.502 59.4187 370.102 69.424L376.907 112.475C377.227 114.459 378.464 116.165 380.256 117.083L419.083 136.859C428.128 141.467 434.976 149.488 438.112 159.131C441.248 168.773 440.416 179.291 435.808 188.315L416.032 227.163C415.115 228.955 415.115 231.045 416.032 232.837L435.808 271.685C440.416 280.709 441.248 291.227 438.112 300.869C434.976 310.512 428.128 318.533 419.083 323.141L380.256 342.917C378.464 343.835 377.227 345.541 376.907 347.525L370.102 390.576C368.502 400.581 362.998 409.563 354.806 415.536C346.592 421.488 336.352 423.963 326.326 422.363L283.275 415.557C281.291 415.237 279.286 415.899 277.878 417.307L247.051 448.133C239.883 455.301 230.155 459.333 220 459.333C209.846 459.333 200.118 455.301 192.95 448.133L162.123 417.307C160.715 415.899 158.71 415.237 156.726 415.557L113.675 422.363C103.648 423.963 93.4084 421.488 85.1951 415.536C77.0031 409.563 71.4991 400.581 69.8991 390.576L63.0938 347.525C62.7738 345.541 61.5364 343.835 59.7444 342.917L20.9178 323.141C11.8724 318.533 5.02444 310.512 1.88844 300.869C-1.24756 291.227 -0.415565 280.709 4.19244 271.685L23.9684 232.837C24.8858 231.045 24.8858 228.955 23.9684 227.163L4.19244 188.315C-0.415565 179.291 -1.24756 168.773 1.88844 159.131C5.02444 149.488 11.8724 141.467 20.9178 136.859L59.7444 117.083C61.5364 116.165 62.7738 114.459 63.0938 112.475L69.8991 69.424C71.4991 59.4187 77.0031 50.4374 85.1951 44.464C93.4084 38.512 103.648 36.0374 113.675 37.6374L156.726 44.4427C158.71 44.7627 160.715 44.1014 162.123 42.6934L192.95 11.8667ZM215.584 34.5014L184.758 65.328C176.096 73.9894 163.808 77.9787 151.712 76.0587L108.662 69.232C107.019 68.976 105.355 69.3814 104.011 70.3627C102.667 71.3227 101.771 72.7947 101.515 74.4374L94.6884 117.488C92.7684 129.584 85.1951 140.037 74.2724 145.584L35.4244 165.381C33.9524 166.128 32.8431 167.451 32.3311 169.029C31.8191 170.608 31.9471 172.315 32.6938 173.787L52.4911 212.635C58.0591 223.536 58.0591 236.464 52.4911 247.365L32.6938 286.213C31.9471 287.685 31.8191 289.392 32.3311 290.971C32.8431 292.549 33.9524 293.872 35.4244 294.619L74.2724 314.416C85.1951 319.963 92.7684 330.416 94.6884 342.512L101.515 385.563C101.771 387.205 102.667 388.677 104.011 389.637C105.355 390.619 107.019 391.024 108.662 390.768L151.712 383.941C163.808 382.021 176.096 386.011 184.758 394.672L215.584 425.499C216.758 426.672 218.336 427.333 220 427.333C221.664 427.333 223.243 426.672 224.416 425.499L255.243 394.672C263.904 386.011 276.192 382.021 288.288 383.941L331.339 390.768C332.982 391.024 334.646 390.619 335.99 389.637C337.334 388.677 338.23 387.205 338.486 385.563L345.312 342.512C347.232 330.416 354.806 319.963 365.728 314.416L404.576 294.619C406.048 293.872 407.158 292.549 407.67 290.971C408.182 289.392 408.054 287.685 407.307 286.213L387.51 247.365C381.942 236.464 381.942 223.536 387.51 212.635L407.307 173.787C408.054 172.315 408.182 170.608 407.67 169.029C407.158 167.451 406.048 166.128 404.576 165.381L365.728 145.584C354.806 140.037 347.232 129.584 345.312 117.488L338.486 74.4374C338.23 72.7947 337.334 71.3227 335.99 70.3627C334.646 69.3814 332.982 68.976 331.339 69.232L288.288 76.0587C276.192 77.9787 263.904 73.9894 255.243 65.328L224.416 34.5014C223.243 33.328 221.664 32.6667 220 32.6667C218.336 32.6667 216.758 33.328 215.584 34.5014Z" fill="black"/>
</g>
<defs>
<clipPath id="clip0_41_1100">
<rect width="440" height="460" fill="white"/>
</clipPath>
</defs>
</svg>
