<svg width="40" height="40" viewBox="0 0 40 40" fill="none" xmlns="http://www.w3.org/2000/svg">
<path d="M36.0938 3.125H23.5261C23.0947 3.125 22.7448 3.47477 22.7448 3.90625C22.7448 4.33773 23.0947 4.6875 23.5261 4.6875H36.0938C37.3861 4.6875 38.4375 5.73891 38.4375 7.03125V25.9375H1.5625V7.03125C1.5625 5.73891 2.61391 4.6875 3.90625 4.6875H16.4948C16.9263 4.6875 17.2761 4.33773 17.2761 3.90625C17.2761 3.47477 16.9263 3.125 16.4948 3.125H3.90625C1.75234 3.125 0 4.87734 0 7.03125V32.9688C0 35.1227 1.75234 36.875 3.90625 36.875H36.0938C38.2477 36.875 40 35.1227 40 32.9688V7.03125C40 4.87734 38.2477 3.125 36.0938 3.125ZM36.0938 35.3125H3.90625C2.61391 35.3125 1.5625 34.2611 1.5625 32.9688V27.5H38.4375V32.9688C38.4375 34.2611 37.3861 35.3125 36.0938 35.3125Z" fill="#232323"/>
<path d="M7.80664 29.0625C6.5143 29.0625 5.46289 30.1139 5.46289 31.4062C5.46289 32.6986 6.5143 33.75 7.80664 33.75C9.09898 33.75 10.1504 32.6986 10.1504 31.4062C10.1504 30.1139 9.09898 29.0625 7.80664 29.0625ZM7.80664 32.1875C7.37586 32.1875 7.02539 31.837 7.02539 31.4062C7.02539 30.9755 7.37586 30.625 7.80664 30.625C8.23742 30.625 8.58789 30.9755 8.58789 31.4062C8.58789 31.837 8.23734 32.1875 7.80664 32.1875Z" fill="#232323"/>
<path d="M33.7559 30.625H14.296C13.8645 30.625 13.5148 30.9748 13.5148 31.4062C13.5148 31.8377 13.8645 32.1875 14.296 32.1875H33.7559C34.1873 32.1875 34.5371 31.8377 34.5371 31.4062C34.5371 30.9748 34.1873 30.625 33.7559 30.625Z" fill="#232323"/>
<path d="M14.6666 12.2437V18.4227C14.6666 19.4733 15.2181 20.414 16.1417 20.9393C16.6036 21.2019 17.1103 21.3333 17.6169 21.3333C18.1235 21.3333 18.6302 21.2019 19.092 20.9393L24.5249 17.8497C25.4485 17.3245 26 16.3837 26 15.3332C26 14.2828 25.4485 13.3419 24.5249 12.8167L19.092 9.72717C18.1685 9.20194 17.0657 9.20194 16.1418 9.72717C15.2181 10.2524 14.6666 11.1932 14.6666 12.2437ZM16.7355 12.2437C16.7355 11.7913 17.0437 11.5673 17.1762 11.4919C17.2567 11.4461 17.4179 11.3724 17.6214 11.3724C17.7526 11.3724 17.9016 11.4032 18.0576 11.4919L23.4904 14.5814C23.8882 14.8076 23.9311 15.1825 23.9311 15.3332C23.9311 15.4839 23.8882 15.8588 23.4904 16.085L18.0576 19.1746C17.6598 19.4006 17.3088 19.2499 17.1763 19.1746C17.0439 19.0992 16.7356 18.8751 16.7356 18.4227V12.2437H16.7355Z" fill="#232323"/>
<path d="M20.0101 4.6875C20.2156 4.6875 20.4172 4.60391 20.5625 4.45859C20.7077 4.31328 20.7914 4.11172 20.7914 3.90625C20.7914 3.70078 20.7078 3.49922 20.5625 3.35391C20.4172 3.20859 20.2156 3.125 20.0101 3.125C19.8047 3.125 19.6031 3.20859 19.457 3.35391C19.3117 3.49922 19.2289 3.70078 19.2289 3.90625C19.2289 4.11172 19.3117 4.31328 19.457 4.45859C19.6031 4.60391 19.8047 4.6875 20.0101 4.6875Z" fill="#232323"/>
</svg>
