<svg width="40" height="40" viewBox="0 0 40 40" fill="none" xmlns="http://www.w3.org/2000/svg">
<g clip-path="url(#clip0_1032_55)">
<path d="M15.0341 20.3368L12.7622 18.065C12.5969 18.6834 12.5 19.33 12.5 20C12.5 24.1356 15.8644 27.5 20 27.5C20.67 27.5 21.3166 27.4031 21.935 27.2378L19.6631 24.9659C17.1791 24.7965 15.2034 22.8209 15.0341 20.3368ZM0.157499 19.3928C0.311249 19.1162 2.49187 15.2953 6.75437 12.0571L8.57344 13.8762C5.46531 16.1615 3.49594 18.8268 2.72063 20.0018C4.20219 22.2578 10.0141 30 20 30C21.4975 30 22.89 29.8084 24.2003 29.5028L26.2544 31.5568C24.3659 32.1359 22.2903 32.5 20 32.5C6.91469 32.5 0.427187 21.0925 0.157499 20.6071C-0.0525007 20.2293 -0.0525007 19.7706 0.157499 19.3928ZM5.36625 7.13371L32.8663 34.6337C33.1103 34.8778 33.4303 35 33.75 35C34.0697 35 34.3897 34.8778 34.6337 34.6337C35.1222 34.1453 35.1222 33.3543 34.6337 32.8662L31.135 29.3675C36.7913 25.9528 39.6653 20.9262 39.8425 20.6071C40.0525 20.2293 40.0525 19.7703 39.8425 19.3925C39.5728 18.9075 33.0853 7.49996 20 7.49996C16.6166 7.49996 13.6859 8.27183 11.1806 9.41308L7.13375 5.36621C6.64531 4.87777 5.85437 4.87777 5.36625 5.36621C4.87812 5.85464 4.87781 6.64558 5.36625 7.13371ZM29.2709 27.5034L26.1063 24.3387C26.9803 23.1125 27.5 21.6171 27.5 20C27.5 15.8643 24.1356 12.5 20 12.5C18.3828 12.5 16.8875 13.0196 15.6612 13.8934L13.1022 11.3343C15.1241 10.5246 17.4216 9.99996 20 9.99996C29.9859 9.99996 35.7978 17.7421 37.2791 19.9981C36.3384 21.4237 33.6347 25.0325 29.2709 27.5034ZM24.2916 22.5237L17.4763 15.7084C18.2197 15.2693 19.0756 15 20 15C22.7569 15 25 17.2431 25 20C25 20.9243 24.7306 21.7803 24.2916 22.5237Z" fill="#232323"/>
</g>
<defs>
<clipPath id="clip0_1032_55">
<rect width="40" height="40" fill="white" transform="matrix(-1 0 0 1 40 0)"/>
</clipPath>
</defs>
</svg>
