<svg width="20" height="20" viewBox="0 0 20 20" fill="none" xmlns="http://www.w3.org/2000/svg">
<g clip-path="url(#clip0_1032_55)">
<path d="M7.51703 10.1685L6.38109 9.03254C6.29844 9.34176 6.25 9.66504 6.25 10C6.25 12.0679 7.93219 13.75 10 13.75C10.335 13.75 10.6583 13.7016 10.9675 13.6189L9.83156 12.483C8.58953 12.3983 7.60172 11.4105 7.51703 10.1685ZM0.0787497 9.69644C0.155625 9.55816 1.24594 7.6477 3.37719 6.02863L4.28672 6.93816C2.73266 8.08082 1.74797 9.41348 1.36031 10.001C2.10109 11.1289 5.00703 15 10 15C10.7487 15 11.445 14.9043 12.1002 14.7514L13.1272 15.7785C12.183 16.068 11.1452 16.25 10 16.25C3.45734 16.25 0.213593 10.5463 0.0787497 10.3036C-0.0262503 10.1147 -0.0262503 9.88535 0.0787497 9.69644ZM2.68312 3.56691L16.4331 17.3169C16.5552 17.4389 16.7152 17.5 16.875 17.5C17.0348 17.5 17.1948 17.4389 17.3169 17.3169C17.5611 17.0727 17.5611 16.6772 17.3169 16.4332L15.5675 14.6838C18.3956 12.9764 19.8327 10.4632 19.9212 10.3036C20.0262 10.1147 20.0262 9.88519 19.9212 9.69629C19.7864 9.45379 16.5427 3.75004 10 3.75004C8.30828 3.75004 6.84297 4.13598 5.59031 4.7066L3.56688 2.68316C3.32266 2.43895 2.92719 2.43895 2.68312 2.68316C2.43906 2.92738 2.43891 3.32285 2.68312 3.56691ZM14.6355 13.7518L13.0531 12.1694C13.4902 11.5563 13.75 10.8086 13.75 10C13.75 7.93223 12.0678 6.25004 10 6.25004C9.19141 6.25004 8.44375 6.50988 7.83062 6.94676L6.55109 5.66723C7.56203 5.26238 8.71078 5.00004 10 5.00004C14.993 5.00004 17.8989 8.87113 18.6395 9.9991C18.1692 10.7119 16.8173 12.5163 14.6355 13.7518ZM12.1458 11.2619L8.73813 7.85426C9.10984 7.63473 9.53781 7.50004 10 7.50004C11.3784 7.50004 12.5 8.6216 12.5 10C12.5 10.4622 12.3653 10.8902 12.1458 11.2619Z" fill="#6F3FBA"/>
</g>
<defs>
<clipPath id="clip0_1032_55">
<rect width="20" height="20" fill="white" transform="matrix(-1 0 0 1 20 0)"/>
</clipPath>
</defs>
</svg>
