<svg width="41" height="40" viewBox="0 0 41 40" fill="none" xmlns="http://www.w3.org/2000/svg">
<path d="M40.2053 8.03876C40.2026 8.03876 40.1999 8.03876 40.1973 8.03876H37.5032V7.13936C37.5177 6.78338 37.2817 6.46346 36.931 6.36402C35.0606 5.88582 33.1346 5.64605 31.201 5.6507C28.0221 5.6507 23.6908 6.34851 20.4881 9.52742C17.3092 6.3175 12.9461 5.6507 9.77515 5.6507C7.84158 5.64605 5.91556 5.88582 4.04516 6.36402C3.69449 6.46346 3.45846 6.78338 3.47296 7.13936V8.03101H0.794728C0.355839 8.03101 0 8.37817 0 8.80635V33.5708C0 33.999 0.355839 34.3462 0.794728 34.3462C0.931222 34.3458 1.06533 34.3111 1.18414 34.2454C1.26362 34.2066 9.21089 29.9655 20.3053 32.6947H20.4245H20.496C20.5594 32.7022 20.6234 32.7022 20.6868 32.6947C31.8129 29.9422 39.7602 34.1756 39.8079 34.2454C40.0538 34.3839 40.3568 34.3839 40.6026 34.2454C40.847 34.1078 40.9983 33.8539 41 33.5786V8.8141C41 8.38592 40.6443 8.03876 40.2053 8.03876ZM1.58946 32.338V9.58945H3.48885V29.0351C3.48389 29.4633 3.83565 29.8143 4.27454 29.8191C4.31746 29.8196 4.36037 29.8167 4.40279 29.8104C6.04688 29.5655 7.70677 29.4359 9.36984 29.4228C11.6736 29.3838 13.9676 29.7218 16.1568 30.4229C11.2131 29.8397 6.19858 30.4989 1.58946 32.338ZM9.36984 27.8798C7.92433 27.883 6.48051 27.9736 5.04652 28.1512V7.75188C6.59386 7.41558 8.17397 7.24394 9.75926 7.24016C12.7315 7.24016 16.8323 7.90695 19.6775 11.0393L19.7013 30.3532C18.0483 29.2987 14.8217 27.8798 9.36984 27.8798ZM21.2908 11.0393C24.1359 7.93797 28.2367 7.24016 31.209 7.24016C32.7941 7.24471 34.3743 7.41626 35.9217 7.75188V28.1512C34.4958 27.972 33.0599 27.8787 31.6222 27.8721C26.2022 27.8721 22.9676 29.2909 21.2908 30.3454V11.0393ZM39.4026 32.338C34.7836 30.4939 29.7576 29.8346 24.8035 30.4229C27.003 29.7193 29.308 29.3812 31.6222 29.4228C33.2957 29.4319 34.9663 29.5588 36.6211 29.8027C37.055 29.8669 37.4602 29.5758 37.526 29.1524C37.5325 29.1111 37.5355 29.0692 37.535 29.0273V9.58945H39.4344L39.4026 32.338Z" fill="#232323"/>
</svg>
