<svg width="50" height="40" viewBox="0 0 50 40" fill="none" xmlns="http://www.w3.org/2000/svg">
<g clip-path="url(#clip0_1032_43)">
<path d="M25 0H14.1667C13.7065 0 13.3333 0.298503 13.3333 0.666667V5.33333H0.833333C0.373128 5.33333 0 5.63184 0 6V39.3333C0 39.7015 0.373128 40 0.833333 40H25C25.4602 40 25.8333 39.7015 25.8333 39.3333V0.666667C25.8333 0.298503 25.4602 0 25 0ZM24.1667 34.6667H15V33.3333H24.1667V34.6667ZM1.66667 10H13.3333V30H1.66667V10ZM24.1667 7.33333H15V5.33333H24.1667V7.33333ZM1.66667 31.3333H13.3333V33.3333H1.66667V31.3333ZM15 32V8.66667H24.1667V32H15ZM24.1667 1.33333V4H15V1.33333H24.1667ZM13.3333 6.66667V8.66667H1.66667V6.66667H13.3333ZM1.66667 34.6667H13.3333V38.6667H1.66667V34.6667ZM15 38.6667V36H24.1667V38.6667H15Z" fill="#232323"/>
<path d="M49.9732 36.4987L39.9732 5.83207C39.9174 5.6602 39.7783 5.51339 39.5862 5.42387C39.3946 5.33468 39.1663 5.31026 38.9519 5.35616L26.4519 8.02283C26.0092 8.11723 25.7447 8.47986 25.8602 8.83468L35.8602 39.5013C35.916 39.6732 36.0556 39.82 36.2476 39.9092C36.4393 39.9981 36.6675 40.0222 36.8816 39.976L49.3816 37.3093C49.8235 37.2149 50.0875 36.8529 49.9732 36.4987ZM29.0101 13.212L39.9 10.8894L40.2918 12.0892L29.4027 14.4154L29.0101 13.212ZM40.7125 13.3829L45.5457 28.2146L34.6599 30.5381L29.8267 15.7054L40.7125 13.3829ZM45.9701 29.5053L46.8234 32.1215L35.9335 34.4441L35.0835 31.8288L45.9701 29.5053ZM38.5718 6.81678L39.4792 9.59998L28.5893 11.9219L27.6827 9.14002L38.5718 6.81678ZM37.2616 38.5166L36.3542 35.7334L47.2441 33.4102L48.1507 36.1921L37.2616 38.5166Z" fill="#232323"/>
<path d="M10.8334 12H4.16671C3.7065 12 3.33337 12.2985 3.33337 12.6667V18C3.33337 18.3682 3.7065 18.6667 4.16671 18.6667H10.8334C11.2936 18.6667 11.6667 18.3682 11.6667 18V12.6667C11.6667 12.2985 11.2936 12 10.8334 12ZM10 17.3333H5.00004V13.3333H10V17.3333Z" fill="#232323"/>
</g>
<defs>
<clipPath id="clip0_1032_43">
<rect width="50" height="40" fill="white"/>
</clipPath>
</defs>
</svg>
