<svg width="1306" height="863" viewBox="0 0 1306 863" fill="none" xmlns="http://www.w3.org/2000/svg">
<path opacity="0.2" d="M64.1294 834.013C64.1294 834.013 -74.0726 672.997 81.6083 497.779C207.096 356.542 167.028 301.922 161.243 206.679C156.348 126.061 247.796 6.8577 384.652 0.908823C608.969 -8.84354 664.732 63.2202 783.828 58.1214C902.924 53.0227 956.789 11.3468 1095.12 27.7695C1351.81 58.2459 1317.21 301.45 1279.8 483.234C1242.39 665.019 1354.8 727.088 1273.91 834.159" fill="#D1E2FF"/>
<path d="M611.195 813.385H438.387L457.158 739.588L461.412 722.853L469.671 690.444H579.911L588.17 722.853L592.424 739.588L611.195 813.385Z" fill="#6F3FBA"/>
<path d="M592.424 739.588H457.158L461.412 722.853H588.17L592.424 739.588Z" fill="#5730A0"/>
<path d="M677.506 833.773H372.064C364.735 833.773 358.793 827.832 358.793 820.503C358.793 813.174 364.735 807.233 372.064 807.233H677.506C684.835 807.233 690.777 813.174 690.777 820.503C690.778 827.83 684.835 833.773 677.506 833.773Z" fill="#774CC9"/>
<path d="M806.746 376.911V701.752C806.746 709.48 800.473 715.752 792.746 715.752H256.85C249.102 715.752 242.85 709.48 242.85 701.752V376.911C242.85 369.184 249.102 362.911 256.85 362.911H792.746C800.473 362.911 806.746 369.184 806.746 376.911Z" fill="#854DCE"/>
<path d="M795.388 373.187H253.166V659.543H795.388V373.187Z" fill="#B8B8F4"/>
<g opacity="0.3">
<path d="M741.724 373.187H726.523V616.72H741.724V373.187Z" fill="#EEFAFF"/>
<path d="M780.236 373.187H765.035V616.72H780.236V373.187Z" fill="#EEFAFF"/>
<path d="M279.59 373.187H264.389V616.72H279.59V373.187Z" fill="#EEFAFF"/>
<path d="M318.1 373.187H302.899V616.72H318.1V373.187Z" fill="#EEFAFF"/>
<path d="M356.612 373.187H341.411V616.72H356.612V373.187Z" fill="#EEFAFF"/>
<path d="M395.124 373.187H379.922V616.72H395.124V373.187Z" fill="#EEFAFF"/>
<path d="M433.636 373.187H418.435V616.72H433.636V373.187Z" fill="#EEFAFF"/>
<path d="M472.145 373.187H456.944V616.72H472.145V373.187Z" fill="#EEFAFF"/>
<path d="M510.657 373.187H495.456V616.72H510.657V373.187Z" fill="#EEFAFF"/>
<path d="M549.169 373.187H533.968V616.72H549.169V373.187Z" fill="#EEFAFF"/>
<path d="M587.679 373.187H572.478V616.72H587.679V373.187Z" fill="#EEFAFF"/>
<path d="M626.19 373.187H610.989V616.72H626.19V373.187Z" fill="#EEFAFF"/>
<path d="M664.702 373.187H649.501V616.72H664.702V373.187Z" fill="#EEFAFF"/>
<path d="M703.214 373.187H688.013V616.72H703.214V373.187Z" fill="#EEFAFF"/>
</g>
<path d="M795.388 616.72H253.166V659.545H795.388V616.72Z" fill="#7272DD"/>
<path d="M524.76 699.739C517.61 699.739 511.759 693.888 511.759 686.738C511.759 679.587 517.61 673.737 524.76 673.737C531.911 673.737 537.761 679.587 537.761 686.738C537.76 693.888 531.909 699.739 524.76 699.739Z" fill="#5730A0"/>
<path opacity="0.2" d="M564.643 715.495H526.555L626.721 362.911H664.807L564.643 715.495Z" fill="url(#paint0_linear_334_1859)"/>
<path opacity="0.2" d="M660.334 715.495H579.529L679.695 362.911H760.5L660.334 715.495Z" fill="url(#paint1_linear_334_1859)"/>
<path d="M774.591 642.325H329.738C327.415 642.325 325.533 640.443 325.533 638.12C325.533 635.797 327.415 633.914 329.738 633.914H774.591C776.914 633.914 778.796 635.797 778.796 638.12C778.796 640.443 776.914 642.325 774.591 642.325Z" fill="#9494ED"/>
<path d="M552.166 633.923V642.334H329.742C327.421 642.334 325.537 640.45 325.537 638.128C325.537 635.79 327.421 633.923 329.742 633.923H552.166Z" fill="#EC6438"/>
<path d="M552.273 645.701C556.453 645.701 559.842 642.312 559.842 638.131C559.842 633.951 556.453 630.562 552.273 630.562C548.092 630.562 544.703 633.951 544.703 638.131C544.703 642.312 548.092 645.701 552.273 645.701Z" fill="white"/>
<path d="M305.875 642.06C308.019 632.981 302.397 623.883 293.318 621.739C284.239 619.595 275.141 625.217 272.997 634.296C270.853 643.375 276.475 652.473 285.554 654.617C294.633 656.761 303.731 651.139 305.875 642.06Z" fill="white"/>
<path d="M286.896 630.554L296.157 637.689C296.448 637.913 296.448 638.352 296.157 638.576L286.896 645.71C286.527 645.994 285.996 645.732 285.996 645.267V630.998C285.996 630.534 286.529 630.271 286.896 630.554Z" fill="#854DCE"/>
<path d="M60.823 797.489C60.823 797.489 -20.5841 687.518 4.96204 664.033C30.5064 640.546 67.8373 723.276 60.823 797.489Z" fill="#D6D4FF"/>
<path d="M12.587 677.059C27.1137 699.397 38.8009 723.387 47.2888 748.653C50.9777 759.632 54.1366 770.779 56.7456 782.064C59.1947 792.651 60.7927 803.381 62.9879 814.014C63.1039 814.574 64.0409 814.456 63.9938 813.878C62.2225 791.494 56.0744 768.678 48.8851 747.492C40.3636 722.38 28.8092 698.23 13.6064 676.463C13.1774 675.846 12.1682 676.413 12.587 677.059Z" fill="#7878C4"/>
<path d="M10.4797 692.117C17.3662 696.995 23.8777 702.553 30.8567 707.25C31.2957 707.546 31.6961 706.916 31.3899 706.558C26.162 700.412 18.2258 694.75 10.9928 691.241C10.4007 690.952 9.94649 691.739 10.4797 692.117Z" fill="#7878C4"/>
<path d="M13.0013 698.704C19.8878 703.582 26.3992 709.14 33.3783 713.836C33.8173 714.132 34.2177 713.503 33.9115 713.145C28.6835 706.998 20.7474 701.336 13.5143 697.827C12.9206 697.538 12.4664 698.325 13.0013 698.704Z" fill="#7878C4"/>
<path d="M77.446 784.897C77.446 784.897 155.933 672.823 129.778 650.017C103.623 627.21 68.4803 710.894 77.446 784.897Z" fill="#D6D4FF"/>
<path d="M121.466 662.657C105.828 686.402 94.3945 712.723 86.4432 739.978C79.8645 762.529 74.5777 786.732 73.7854 810.295C73.7669 810.859 74.7039 811.012 74.7913 810.431C76.4869 799.284 77.6408 788.081 79.661 776.976C81.8578 764.897 84.6653 752.935 88.0732 741.141C95.9925 713.721 107.54 687.566 122.487 663.253C122.889 662.6 121.883 662.025 121.466 662.657Z" fill="#7878C4"/>
<path d="M79.7266 731.227C79.3313 740.178 79.5113 750.382 81.5601 759.145C81.6762 759.643 82.4062 759.512 82.4247 759.028C82.6013 754.698 82.0176 750.284 81.7418 745.963C81.4289 741.056 81.2641 736.117 80.7426 731.227C80.6753 730.587 79.7569 730.561 79.7266 731.227Z" fill="#0E7C74"/>
<path d="M71.3082 745.159C71.3082 745.159 -7.68162 633.44 18.3691 610.516C44.4215 587.591 79.9391 671.116 71.3082 745.159Z" fill="#A29EE5"/>
<path d="M25.7163 623.716C53.1245 667.605 68.366 717.777 73.5671 769.085C74.61 779.381 75.049 789.702 75.8245 800.015C75.8733 800.666 76.8337 800.683 76.8489 800.015C77.3232 780.197 74.8001 759.986 71.4443 740.496C67.0826 715.16 60.1052 690.208 49.9941 666.551C43.5231 651.412 35.8241 636.853 26.7374 623.12C26.3202 622.488 25.3093 623.065 25.7163 623.716Z" fill="#7878C4"/>
<path d="M66.5709 777.746C66.5709 777.746 115.182 710.939 99.6411 696.884C84.0984 682.828 61.967 732.968 66.5709 777.746Z" fill="#8C8CDD"/>
<path d="M94.2799 704.31C82.1351 721.882 73.886 741.93 68.7926 762.622C65.0062 778 61.9011 794.907 62.5722 810.826C62.6008 811.501 63.5193 811.467 63.5966 810.826C65.5563 794.749 66.6967 778.932 70.616 763.125C75.733 742.484 83.977 722.914 95.3009 704.907C95.7113 704.256 94.7071 703.693 94.2799 704.31Z" fill="#7878C4"/>
<path d="M99.156 774.526L98.7725 777.081L97.9684 782.508L90.2039 834.626H43.8838L36.1192 782.508L35.3152 777.081L34.9316 774.526H99.156Z" fill="#BFB8F4"/>
<path d="M98.7723 777.082L97.9682 782.508H36.119L35.3149 777.082H98.7723Z" fill="#7878C4"/>
<path d="M100.058 779.423H34.0271C31.9111 779.423 30.1953 777.708 30.1953 775.592C30.1953 773.476 31.9111 771.76 34.0271 771.76H100.058C102.174 771.76 103.89 773.476 103.89 775.592C103.888 777.708 102.174 779.423 100.058 779.423Z" fill="#A29EE5"/>
<path d="M128.166 585.376V619.834C128.166 620.362 127.996 620.851 127.714 621.228C127.281 621.869 126.546 622.264 125.735 622.264H75.1126C74.4532 622.264 73.8695 622 73.4355 621.605V589.615C73.4355 588.447 74.396 587.505 75.5651 587.505H111.135C112.302 587.505 113.244 586.545 113.244 585.376C113.244 584.209 114.186 583.246 115.354 583.246H126.035C127.206 583.246 128.166 584.207 128.166 585.376Z" fill="#383493"/>
<path d="M127.713 621.228C127.281 621.869 126.546 622.264 125.735 622.264H75.1123C74.4529 622.264 73.8692 622 73.4352 621.605C73.2284 621.398 73.04 621.153 72.9273 620.889C72.8902 620.831 72.8701 620.776 72.8516 620.719L61.5848 595.003C61.0012 593.665 61.9801 592.158 63.4503 592.158H113.639C114.45 592.158 115.185 592.629 115.505 593.364L126.055 617.442L127.713 621.228Z" fill="#5146AF"/>
<path d="M16.9043 835.38H1032.69" stroke="#5730A0" stroke-width="2" stroke-miterlimit="10" stroke-linecap="round" stroke-linejoin="round"/>
<path d="M367.408 412.75H120.75C119.419 412.75 118.341 411.672 118.341 410.342V226.878C118.341 222.711 121.718 219.335 125.883 219.335H358.638C364.813 219.335 369.818 224.341 369.818 230.516V410.342C369.818 411.67 368.739 412.75 367.408 412.75Z" fill="#D6D4FF"/>
<path d="M355.436 403.361H132.998C130.371 403.361 128.243 401.231 128.243 398.606V366.476C128.243 363.85 130.373 361.72 132.998 361.72H355.435C358.06 361.72 360.19 363.85 360.19 366.476V398.606C360.192 401.233 358.062 403.361 355.436 403.361Z" fill="white"/>
<path d="M357.162 354.83H131.273C129.601 354.83 128.243 353.475 128.243 351.801V340.97C128.243 339.298 129.599 337.94 131.273 337.94H357.164C358.836 337.94 360.193 339.296 360.193 340.97V351.801C360.192 353.475 358.836 354.83 357.162 354.83Z" fill="white"/>
<path opacity="0.31" d="M263.289 251.989H130.943C128.884 251.989 127.216 250.32 127.216 248.261C127.216 246.202 128.884 244.533 130.943 244.533H263.289C265.348 244.533 267.017 246.202 267.017 248.261C267.017 250.32 265.348 251.989 263.289 251.989Z" fill="white"/>
<path opacity="0.31" d="M263.289 267.395H130.945C128.886 267.395 127.217 265.726 127.217 263.667C127.217 261.608 128.886 259.94 130.945 259.94H263.289C265.348 259.94 267.017 261.608 267.017 263.667C267.017 265.726 265.348 267.395 263.289 267.395Z" fill="white"/>
<path opacity="0.31" d="M263.289 282.803H130.945C128.886 282.803 127.217 281.134 127.217 279.075C127.217 277.017 128.886 275.348 130.945 275.348H263.289C265.348 275.348 267.017 277.017 267.017 279.075C267.017 281.134 265.348 282.803 263.289 282.803Z" fill="white"/>
<path opacity="0.31" d="M263.289 298.209H130.945C128.886 298.209 127.217 296.54 127.217 294.481C127.217 292.423 128.886 290.754 130.945 290.754H263.289C265.348 290.754 267.017 292.423 267.017 294.481C267.017 296.54 265.348 298.209 263.289 298.209Z" fill="white"/>
<path opacity="0.31" d="M263.289 313.617H130.945C128.886 313.617 127.217 311.949 127.217 309.89C127.217 307.831 128.886 306.162 130.945 306.162H263.289C265.348 306.162 267.017 307.831 267.017 309.89C267.017 311.949 265.348 313.617 263.289 313.617Z" fill="white"/>
<path opacity="0.31" d="M232.199 329.029H130.945C128.886 329.029 127.217 327.36 127.217 325.301C127.217 323.242 128.886 321.574 130.945 321.574H232.199C234.258 321.574 235.927 323.242 235.927 325.301C235.927 327.36 234.256 329.029 232.199 329.029Z" fill="white"/>
<path d="M367.27 212.941H120.889C119.481 212.941 118.341 214.082 118.341 215.49V234.356H369.818V215.49C369.818 214.084 368.676 212.941 367.27 212.941Z" fill="#854DCE"/>
<path d="M332.501 223.65C332.501 224.933 331.461 225.973 330.178 225.973C328.895 225.973 327.855 224.933 327.855 223.65C327.855 222.366 328.896 221.325 330.178 221.325C331.461 221.325 332.501 222.366 332.501 223.65Z" fill="white"/>
<path d="M344.047 223.65C344.047 224.933 343.006 225.973 341.722 225.973C340.439 225.973 339.397 224.933 339.397 223.65C339.397 222.366 340.437 221.325 341.722 221.325C343.007 221.325 344.047 222.366 344.047 223.65Z" fill="white"/>
<path d="M355.593 223.65C355.593 224.933 354.554 225.973 353.268 225.973C351.985 225.973 350.944 224.933 350.944 223.65C350.944 222.366 351.985 221.325 353.268 221.325C354.554 221.325 355.593 222.366 355.593 223.65Z" fill="white"/>
<path d="M360.192 246.945V326.593C360.192 327.94 359.104 329.028 357.756 329.028H278.968C277.649 329.028 276.561 327.94 276.561 326.593V246.945C276.561 245.626 277.649 244.538 278.968 244.538H357.756C359.104 244.54 360.192 245.628 360.192 246.945Z" fill="white"/>
<path d="M360.192 311.668V326.595C360.192 327.942 359.104 329.03 357.756 329.03H318.678L320.34 311.668L338.733 291.326L360.192 311.668Z" fill="#6C3DB7"/>
<path d="M349.246 329.029H278.968C277.649 329.029 276.561 327.941 276.561 326.593V311.666L304.065 282.803L349.246 329.029Z" fill="#854DCE"/>
<path d="M349.13 267.395C349.13 272.75 344.789 277.092 339.434 277.092C334.079 277.092 329.739 272.75 329.739 267.395C329.739 262.039 334.08 257.699 339.434 257.699C344.79 257.699 349.13 262.04 349.13 267.395Z" fill="#854DCE"/>
<path d="M478.542 591.32L452.251 546.206L410.451 549.498L399.051 559.895C397.586 558.195 397.907 558.583 396.764 557.302C387.944 547.426 367.303 531.005 350.936 514.105C332.351 494.914 318.438 475.709 318.438 475.709L315.131 477.36C315.145 475.6 315.155 474.473 315.155 474.473L300.443 454.794L282.614 453.634L269.378 469.73L270.059 478.335C270.059 478.335 270.273 491.599 280.635 492.939C283.745 493.341 291.605 494.842 294.085 496.536C301.188 501.392 306.791 508.12 310.702 515.786C322.386 538.689 339.419 571.364 355.414 599.364C355.414 599.364 356.016 600.535 357.248 602.367C362.812 611.235 380.055 636.875 394.155 638.084C411.214 639.551 478.542 591.32 478.542 591.32Z" fill="#F7B59C"/>
<path d="M538.44 353.431C538.44 353.431 544.054 345.045 551.778 343.047C559.502 341.049 543.303 361.002 543.303 361.002C543.303 361.002 538.942 362.933 538.44 362.61C537.941 362.29 538.44 353.431 538.44 353.431Z" fill="#01263A"/>
<path d="M682.307 293.528C682.307 293.528 737.385 313.296 671.816 370.121L661.947 367.116L682.307 293.528Z" fill="#003051"/>
<path d="M543.04 464.562C569.309 496.581 604.43 501.696 604.43 501.696C665.434 500.537 675.836 466.927 675.836 466.927L641.764 459.363C641.764 459.363 640.734 414.875 659.631 387.431C673.791 390.16 680.427 367.825 676.538 361.826C672.319 355.318 667.574 356.176 667.574 356.176C663.557 360.536 659.907 370.799 658.104 375.862L573.111 419.817C573.111 419.817 574.14 421.928 575.393 425.928C576.697 430.081 578.276 436.295 579.186 444.31C579.735 449.218 580.061 454.796 579.925 461.01L543.04 464.562ZM652.045 385.559C653.846 382.486 655.804 379.381 657.966 376.255C657.211 378.418 656.644 380.375 656.232 381.971C653.83 383.996 652.095 385.507 652.045 385.559Z" fill="#F7B59C"/>
<path d="M575.393 425.928C576.697 430.081 578.276 436.295 579.186 444.31C649.967 428.795 651.993 390.485 651.993 390.485L615.658 405.228L575.393 425.928Z" fill="#ED9780"/>
<path d="M564.185 269.642C564.185 269.642 548.772 298.302 559.388 317.182L583.925 285.376" fill="#01263A"/>
<path d="M537.159 415.164C553.468 440.921 613.249 440.33 641.293 403.43C669.338 366.529 673.914 324.191 659.892 298.164C652.093 283.699 633.446 275.334 615.119 273.982C610.175 273.614 605.279 274.007 600.532 275.065C589.363 277.526 579.179 283.773 571.627 292.655C570.939 293.467 570.298 294.278 569.659 295.116L565.354 300.798C564.789 301.536 564.272 302.275 563.754 303.062C561.048 307.096 558.933 311.5 557.531 316.125C556.743 318.536 556.178 321.02 555.784 323.53C554.726 330.319 552.119 339.226 545.747 347.073C533.445 362.225 520.874 389.433 537.159 415.164Z" fill="#F7B59C"/>
<path d="M571.617 292.653C575.684 294.352 582.293 296.601 590.616 297.597C604.879 299.312 633.627 302.162 643.274 312.65C643.274 312.65 647.325 316.305 649.71 324.544C652.078 332.783 644.354 296.534 644.354 296.534L600.535 275.062C589.363 277.531 579.168 283.761 571.617 292.653Z" fill="#ED9780"/>
<path d="M655.005 336.014C655.005 336.014 654.867 373.339 635.129 383.207C615.392 393.076 601.874 380.908 592.863 374.462C587.679 370.757 585.855 380.257 585.855 380.257C585.855 380.257 596.153 397.366 601.302 397.366C606.451 397.366 627.19 397.08 628.764 396.079C630.337 395.078 642.209 389.356 642.209 389.356C642.209 389.356 650.362 375.421 650.934 373.949C651.506 372.477 660.803 356.602 660.374 354.598C659.945 352.597 660.088 339.437 660.088 339.437L655.005 336.014Z" fill="#ED9780"/>
<path d="M564.737 220.711C560.084 221.616 555.872 231.169 553.975 235.45C551.243 241.61 546.042 256.296 557.894 272.718C571.335 291.348 600.374 291.383 622.042 296.963C641.299 301.92 650.899 314.332 649.634 328.478C649.287 332.352 650.662 336.184 653.214 339.118L653.624 339.589C655.999 342.317 656.971 345.986 656.255 349.532C653.992 360.716 646.927 383.656 629.551 388.787C614.534 393.221 608.374 387.581 605.893 385.692C597.156 379.042 592.22 371.676 575.167 363.362C566.298 359.035 556.753 359.636 544.314 357.819C542.001 357.481 538.799 357.177 538.44 353.431C538.44 353.431 511.291 385.285 530.285 418.397C535.059 426.718 542.943 432.717 552.269 434.966C565.033 438.044 586.236 439.834 610.885 428.69C651.219 410.454 664.521 368.832 669.885 355.745C675.247 342.658 689.194 307.402 678.793 274.934C672.374 254.895 652.044 237.953 618.825 236.459C595.681 235.419 578.521 218.028 564.737 220.711Z" fill="#003051"/>
<path d="M591.12 383.105C591.12 383.105 590.553 384.187 589.403 385.68C585.764 390.434 576.205 399.411 559.899 391.482C554.783 388.992 552.175 385.647 550.99 382.247C548.503 375.192 552.21 367.949 552.21 367.949C552.21 367.949 558.252 371.914 566.472 375.776C573.578 379.14 582.331 382.419 590.193 383.036C590.503 383.07 590.812 383.088 591.12 383.105Z" fill="#8D1612"/>
<path d="M590.625 381.594L590.196 383.036L589.405 385.678C585.767 390.432 576.207 399.409 559.901 391.48C554.786 388.99 552.177 385.645 550.993 382.245C557.721 375.791 564.433 375.774 564.433 375.774H575.383L590.625 381.594Z" fill="#FF4C2F"/>
<path d="M553.026 367.949C553.026 367.949 548.464 373.631 548.453 375.255C548.434 377.776 578.488 391.886 580.098 391.993C581.706 392.101 584.505 386.311 584.505 386.311L572.33 379.059" fill="#FAFFF7"/>
<path d="M554.506 307.044C553.793 308.642 554.366 307.151 553.719 309.412C553.054 311.73 554.55 313.817 556.821 314.63C562.454 316.643 579.529 323.4 579.529 323.4C581.312 324.433 581.339 322.514 580.787 321.358C578.545 316.66 576.294 310.822 560.123 305.343C557.855 304.574 555.482 304.857 554.506 307.044Z" fill="#003051"/>
<path d="M634.764 339.37C634.095 340.986 634.781 339.547 633.587 341.57C632.361 343.647 629.817 343.997 627.666 342.907C622.329 340.204 605.679 332.458 605.679 332.458C603.703 331.874 605.077 330.535 606.296 330.14C611.249 328.535 617.035 326.152 632.135 334.122C634.253 335.242 635.681 337.158 634.764 339.37Z" fill="#003051"/>
<path d="M546.092 369.048C546.092 369.048 555.559 381.09 568.71 377.414C568.71 377.414 568.833 387.26 590.932 390.489L592.863 382.777C592.863 382.777 578.643 375.196 577.707 375.768C576.772 376.339 563.256 372.156 560.681 371.673C558.106 371.191 549.31 364.324 549.31 364.324L546.092 369.048Z" fill="#003051"/>
<path d="M669.655 363.845C669.655 363.845 661.634 375.275 662.864 380.259C662.864 380.259 663.172 377.365 670.551 377.409C670.551 377.409 675.322 370.761 672.921 365.806C671.73 363.345 669.655 363.845 669.655 363.845Z" fill="#ED9780"/>
<path d="M606.424 343.01C603.904 347.116 602.851 351.592 606.972 354.854C608.296 355.902 610.584 355.454 611.724 354.363C613.822 352.357 614.104 351.407 615.337 349.069C618.155 343.728 609.64 337.769 606.424 343.01Z" fill="#452E17"/>
<path d="M607.114 345.404C606.453 346.481 606.177 347.656 607.257 348.511C607.604 348.785 608.204 348.667 608.503 348.381C609.054 347.855 608.909 347.31 609.232 346.696C609.972 345.295 607.957 344.028 607.114 345.404Z" fill="white"/>
<path d="M562.462 328.154C560.381 331.338 559.45 334.847 562.63 337.514C563.651 338.371 565.468 338.068 566.392 337.233C568.092 335.698 568.239 334.466 569.265 332.648C571.608 328.493 565.118 324.088 562.462 328.154Z" fill="#452E17"/>
<path d="M562.952 330.058C562.407 330.893 562.161 331.814 562.995 332.514C563.263 332.74 563.741 332.659 563.983 332.44C564.429 332.038 564.326 331.604 564.597 331.126C565.211 330.036 563.648 328.992 562.952 330.058Z" fill="white"/>
<path d="M319.015 476.64C319.015 476.64 297.922 431.344 283.205 420.673C283.205 420.673 278.026 421.482 278.632 427.778C279.237 434.074 288.167 441.795 288.571 447.684C288.973 453.573 285.013 452.759 280.14 451.638C275.267 450.518 239.235 430.464 235.679 432.22C232.056 434.01 235.778 437.754 238.315 439.786C240.852 441.818 260.086 453.913 260.086 453.913C260.086 453.913 225.43 434.895 222.838 441.507C221.158 445.795 253.38 462.337 253.38 462.337C253.38 462.337 225.698 446.829 224.433 452.582C223.354 457.492 246.805 468.495 246.805 468.495C246.805 468.495 232.31 460.908 231.22 464.239C229.837 468.459 249.969 479.393 255.804 483.203C261.639 487.013 275.851 493.114 281.486 492.964C287.121 492.815 291.284 492.26 294.379 495.408" fill="#F7B59C"/>
<path d="M704.918 573.637L716.558 616.715H505.135C505.152 605.58 504.546 592.291 503.671 579.171L458.187 607.026C443.318 577.556 410.903 549.515 410.449 549.499C442.022 518.521 480.738 483.437 501.831 468.803C511.924 461.789 560.409 458.968 566.7 458.345C572.183 457.79 577.028 454.561 579.669 449.716C579.669 449.716 586.414 465.393 597.415 471.062C600.409 472.29 600.678 490.07 604.412 489.969C605.523 489.935 613.698 471.365 614.757 471.197C614.757 471.197 627.777 468.993 642.159 447.328L644.732 450.843C647.087 454.056 650.468 456.31 654.337 457.218C661.671 458.951 674.808 462.433 687.71 467.647C705.843 474.965 725.81 509.767 725.81 509.767L730.301 573.637L703.657 572.426L704.918 573.637Z" fill="white"/>
<path d="M685.46 562.696L690.486 616.72H716.559L711.933 581.509L685.46 562.696Z" fill="#F4F4F4"/>
<path d="M763.237 554.175L786.786 616.72H716.558L704.923 591.32" fill="#F7B59C"/>
<path d="M660.388 458.735C660.388 458.735 714.208 466.52 730.301 482.544C738.321 490.53 744.897 505.836 754.966 528.802C771.437 566.368 779.201 586.829 779.201 586.829C779.201 586.829 738.456 615.149 697.633 606.738L677.633 549.126L660.388 458.735Z" fill="white"/>
<path d="M580.683 337.563C577.162 346.277 567.948 350.771 560.104 347.602C552.259 344.433 548.755 334.798 552.276 326.085C555.796 317.371 565.011 312.877 572.855 316.046C580.698 319.215 584.204 328.85 580.683 337.563Z" stroke="white" stroke-miterlimit="10"/>
<path d="M622.16 354.386C625.681 345.672 622.175 336.038 614.33 332.868C606.485 329.699 597.271 334.194 593.75 342.908C590.229 351.623 593.735 361.256 601.58 364.426C609.426 367.596 618.64 363.101 622.16 354.386Z" stroke="white" stroke-miterlimit="10"/>
<path d="M581.104 336.403C581.104 336.403 590.281 335.424 593.756 342.928" stroke="white" stroke-miterlimit="10"/>
<path d="M622.739 352.777L669.885 355.746" stroke="white" stroke-miterlimit="10" stroke-linecap="round"/>
<path d="M516.674 616.715H505.135C505.152 605.58 504.546 592.291 503.671 579.171L513.024 573.939C513.024 573.939 516.943 604.839 516.674 616.715Z" fill="#F4F4F4"/>
<path d="M585.856 340.981C585.856 340.981 573.58 350.478 572.248 355.447C571.462 358.378 576.382 361.621 576.382 361.621" stroke="#ED9780" stroke-miterlimit="10" stroke-linecap="round"/>
<path d="M247.524 671.898C247.524 671.898 252.564 689.471 233.665 689.464C230.988 689.464 228.72 688.763 226.801 687.823C219.825 684.463 218.2 672.748 218.2 672.748C224.106 671.235 222.034 662.702 222.034 662.702L243.026 663.182C243.026 663.182 241.988 668.669 243.521 670.238C246.195 672.968 247.524 671.898 247.524 671.898Z" fill="#F7B59C"/>
<path d="M219.372 671.418C219.372 671.418 218.191 687.002 232.861 687.002C246.133 687.002 246.294 676.679 245.314 670.992C260.471 672.343 277.045 678.464 285.511 685.411C295.553 698.402 302.522 718.272 302.522 718.272C302.522 718.272 297.738 720.51 293.101 721.892C288.15 723.368 284.51 725.637 284.51 725.637L278.572 805.856H185.737L184.154 725.59C184.154 725.59 178.055 724.128 173.121 722.51C165.902 720.143 163.2 717.828 163.2 717.828C163.2 717.828 168.776 701.388 177.178 687.865C185.707 679.979 201.661 673.485 219.372 671.418Z" fill="#5146AF"/>
<path d="M164.844 718.75C164.844 718.75 155.989 750.063 156.805 765.023C157.621 779.982 192.98 800.926 192.98 800.926L197.604 785.15C197.604 785.15 182.918 778.894 180.741 767.471C178.565 756.048 190.896 727.395 190.896 727.395C190.896 727.395 185.448 725.798 178.003 723.758C170.761 721.775 164.844 718.75 164.844 718.75Z" fill="#F7B59C"/>
<path d="M301.446 718.75C301.446 718.75 310.301 750.063 309.485 765.023C308.669 779.982 273.311 800.926 273.311 800.926L268.687 785.15C268.687 785.15 283.375 778.894 285.55 767.471C287.727 756.048 274.961 726.703 274.961 726.703C274.961 726.703 280.844 725.379 288.289 723.339C295.53 721.358 301.446 718.75 301.446 718.75Z" fill="#F7B59C"/>
<path d="M289.902 807.159H175.187L172.585 735.286C172.518 733.423 174.01 731.875 175.874 731.875H289.214C291.079 731.875 292.571 733.423 292.504 735.286L289.902 807.159Z" fill="#9999EF"/>
<path d="M280.712 823.604C280.712 823.604 283.153 820.721 288.832 820.566C292.516 820.467 302.943 822.823 307.917 822.741C312.891 822.658 318.068 821.568 320.923 825.814C325.766 833.018 323.673 839.516 315.517 840.494C311.081 841.025 307.416 838.095 300.368 838.795C293.538 839.473 282.885 837.19 279.784 832.312" fill="#4C4051"/>
<path d="M271.076 820.248C271.076 820.248 276.574 821.821 280.225 822.016C283.875 822.211 292.067 821.302 295.764 823.629C299.771 826.15 298.287 832.98 295.747 834.593C291.646 837.197 288.331 835.849 280.828 833.486C273.326 831.123 264.521 832.023 264.521 832.023" fill="#F7B59C"/>
<path d="M282.251 836.626C282.251 836.626 197.199 835.094 174.538 832.11C165.009 830.847 156.062 828.796 148.603 825.75C138.411 819.681 134.68 805.227 141.614 791.909C144.849 785.696 154.819 786.809 156.206 786.809C156.558 786.809 156.745 786.829 156.745 786.829C184.316 787.906 209.442 794.949 237.84 806.301C264.271 816.845 284.468 821.237 284.468 821.237C285.96 832.09 282.251 836.626 282.251 836.626Z" fill="#0052A3"/>
<path d="M302.74 827.302C302.74 827.302 300.486 826.047 299.735 827.4C298.985 828.752 298.578 834.502 298.967 835.38C299.671 836.969 302.975 836.399 302.975 836.399L305.671 829.127L302.74 827.302Z" fill="#4C4051"/>
<path d="M186.017 823.723C186.017 823.723 183.492 820.719 177.594 820.537C173.769 820.419 162.93 822.828 157.764 822.724C152.598 822.619 147.517 821.497 144.221 824.969C138.013 831.508 143.793 839.716 152.26 840.761C156.866 841.329 158.228 838.673 165.545 839.425C172.636 840.155 183.709 837.826 186.949 832.769" fill="#594A5F"/>
<path d="M196.037 820.275C196.037 820.275 190.318 821.888 186.526 822.076C182.735 822.266 174.23 821.291 170.38 823.693C166.208 826.295 167.724 833.395 170.356 835.081C174.605 837.801 178.055 836.415 185.855 833.987C193.657 831.56 202.799 832.529 202.799 832.529" fill="#F7B59C"/>
<path d="M318.605 825.461L318.585 825.481C310.817 828.837 301.35 831.032 291.18 832.357C268.499 835.257 183.426 836.48 183.426 836.48C183.426 836.48 179.739 831.903 181.272 821.069C181.272 821.069 201.509 816.761 227.962 806.32C255.76 795.363 280.43 788.422 307.254 787.201C312.506 787.723 318.575 790.039 322.863 799.03C328.578 810.921 324.156 823.37 318.605 825.461Z" fill="#0058C4"/>
<path d="M167.919 824.591C167.919 824.591 170.798 823.001 171.751 824.729C172.701 826.456 173.192 833.79 172.693 834.909C171.788 836.932 167.577 836.19 167.577 836.19L164.174 826.905L167.919 824.591Z" fill="#594A5F"/>
<path d="M257.19 621.858C257.19 621.858 265.069 621.057 256.135 641.464C252.768 649.156 251.568 648.645 251.509 649.018C251.452 649.392 248.492 646.462 248.492 645.166C248.492 643.871 248.621 633.774 248.751 633.255C248.88 632.739 257.19 621.858 257.19 621.858Z" fill="#2C1E56"/>
<path d="M210.73 626.525C210.73 626.525 204.631 624.826 207.092 636.996C208.755 645.227 213.092 648.646 213.149 649.018C213.206 649.392 216.167 646.461 216.167 645.166C216.167 643.871 216.037 633.773 215.908 633.255C215.78 632.739 210.73 626.525 210.73 626.525Z" fill="#2C1E56"/>
<path d="M212.4 641.753C212.4 641.753 209.813 639.254 209.085 642.586C208.357 645.92 211.065 654.566 214.501 651.232" fill="#E5A18C"/>
<path d="M252.354 641.753C252.354 641.753 254.939 639.254 255.669 642.586C256.399 645.918 253.689 654.566 250.253 651.232" fill="#E5A18C"/>
<path d="M233.176 668.28C233.176 668.28 233.109 668.28 232.974 668.28C230.574 668.426 209.215 668.63 211.918 629.805H252.611C252.611 629.805 257.545 665.948 233.176 668.28Z" fill="#F7B59C"/>
<path d="M247.064 608.045C254.726 610.316 259.676 620.005 255.891 627.669C252.108 635.332 239.921 639.797 226.3 636.897C218.281 635.189 215.701 631.965 210.892 632.207C207.193 632.394 203.822 630.14 202.535 626.668C200.787 621.953 199.754 615.578 204.641 611.781C217.928 615.613 235.565 604.637 247.064 608.045Z" fill="#2C1E56"/>
<path d="M239.109 767.219C239.109 771.297 235.803 774.6 231.726 774.6C227.65 774.6 224.345 771.295 224.345 767.219C224.345 763.142 227.65 759.837 231.726 759.837C235.803 759.838 239.109 763.142 239.109 767.219Z" fill="#D1DEFF"/>
<path d="M222.355 665.101C222.355 665.101 223.511 665.868 225.397 666.588C227.266 667.33 229.92 667.903 232.544 667.767C233.92 667.718 235.173 667.51 236.416 667.227C237.632 666.936 238.764 666.6 239.703 666.223C241.597 665.501 242.798 664.82 242.798 664.82C242.798 664.82 241.789 665.779 239.945 666.753C239.02 667.222 237.91 667.742 236.652 668.109C235.42 668.487 233.965 668.734 232.611 668.8C231.183 668.854 229.779 668.717 228.497 668.396C227.213 668.088 226.085 667.59 225.158 667.116C223.304 666.132 222.355 665.101 222.355 665.101Z" fill="#EAA18B"/>
<path d="M223.803 646.209C223.96 647.597 224.081 649.241 222.567 649.421C221.846 649.506 221.181 648.966 221.015 648.541C220.71 647.755 220.865 647.328 220.83 646.561C220.745 644.81 223.603 644.436 223.803 646.209Z" fill="#452E17"/>
<path d="M223.097 647.383C223.167 647.743 223.124 648.09 222.744 648.214C222.621 648.254 222.469 648.162 222.417 648.053C222.321 647.854 222.416 647.72 222.389 647.521C222.33 647.065 223.006 646.924 223.097 647.383Z" fill="white"/>
<path d="M242.475 646.209C242.631 647.597 242.752 649.241 241.239 649.421C240.517 649.506 239.852 648.966 239.686 648.541C239.382 647.755 239.536 647.328 239.501 646.561C239.417 644.81 242.275 644.436 242.475 646.209Z" fill="#452E17"/>
<path d="M241.768 647.383C241.839 647.743 241.795 648.09 241.415 648.214C241.292 648.254 241.141 648.162 241.089 648.053C240.993 647.854 241.087 647.72 241.06 647.521C241.001 647.065 241.677 646.924 241.768 647.383Z" fill="white"/>
<path d="M244.727 641.104C244.843 641.44 244.759 641.133 244.83 641.587C244.902 642.053 244.426 642.347 243.804 642.36C242.26 642.392 237.551 642.608 237.551 642.608C237.045 642.69 237.121 642.335 237.313 642.157C238.093 641.427 238.926 640.488 243.346 640.453C243.965 640.448 244.567 640.643 244.727 641.104Z" fill="#003051"/>
<path d="M218.648 641.104C218.532 641.44 218.616 641.133 218.545 641.587C218.473 642.053 218.949 642.347 219.571 642.36C221.116 642.392 225.824 642.608 225.824 642.608C226.33 642.69 226.254 642.335 226.063 642.157C225.28 641.427 224.45 640.488 220.029 640.453C219.408 640.448 218.806 640.643 218.648 641.104Z" fill="#003051"/>
<path d="M231.728 648.788C231.728 648.788 229.942 652.712 230.502 653.484C231.062 654.255 233.168 654.29 233.168 654.29" stroke="#EAA18B" stroke-width="0.5" stroke-miterlimit="10" stroke-linecap="round"/>
<path d="M226.962 660.019C226.962 660.019 232.594 663.331 237.634 659.757" stroke="#C9806F" stroke-width="0.5" stroke-miterlimit="10" stroke-linecap="round"/>
<path d="M324.232 849.957L326.737 843.292C326.737 843.292 366.495 845.171 385.346 856.902L349.474 857.575L324.232 849.957Z" fill="#E1EFFF"/>
<path d="M446.462 849.957L443.957 843.292C443.957 843.292 404.199 845.171 385.348 856.902L421.22 857.575L446.462 849.957Z" fill="#E1EFFF"/>
<path d="M385.346 856.901C363.809 848.541 322.175 847.954 322.175 847.954V862.139H376.096H394.594H448.516V847.954C448.516 847.954 406.884 848.541 385.346 856.901Z" fill="#CCE1FF"/>
<path d="M453.399 858.193H317.295V863H453.399V858.193Z" fill="#7878FF"/>
<path d="M231.728 489.392H221.635" stroke="#9ACEE2" stroke-miterlimit="10" stroke-linecap="round"/>
<path d="M213.325 489.391H148.386C144.647 489.391 141.616 492.423 141.616 496.162V753.066C141.616 753.897 141.765 754.693 142.038 755.428" stroke="#9ACEE2" stroke-miterlimit="10" stroke-linecap="round" stroke-dasharray="11.86 4.94"/>
<path d="M144.563 758.656C145.651 759.401 146.967 759.838 148.386 759.838H154.422" stroke="#9ACEE2" stroke-miterlimit="10" stroke-linecap="round"/>
<path d="M379.922 244.54H476.012C486.751 244.54 495.458 253.245 495.458 263.985V355.747" stroke="#9ACEE2" stroke-miterlimit="10" stroke-linecap="round" stroke-dasharray="12 5"/>
<path d="M673.707 652.037C673.707 652.037 662.55 645.506 660.131 632.685C660.131 632.685 670.641 634.861 675.909 652.037" fill="white"/>
<path d="M678.111 652.037C678.111 652.037 689.268 645.506 691.687 632.685C691.687 632.685 681.178 634.861 675.909 652.037" fill="white"/>
<path d="M674.741 650.99C674.741 650.99 666.696 640.87 669.069 628.039C669.069 628.039 678.084 633.864 676.794 651.784" fill="white"/>
<path d="M677.341 651.029C677.341 651.029 685.144 640.721 682.468 627.95C682.468 627.95 673.593 633.987 675.309 651.871" fill="white"/>
<path d="M687.802 649.437H663.49V669.769H687.802V649.437Z" fill="#CFE3FF"/>
<path opacity="0.5" d="M670.722 649.437H663.49V669.769H670.722V649.437Z" fill="#94C1F7"/>
<g opacity="0.5">
<path d="M190.685 604.037L201.681 609.902L196.182 595.608" fill="#389FE5"/>
<path d="M156.565 585.761C156.565 598.597 166.97 609.002 179.807 609.002C192.641 609.002 203.046 598.597 203.046 585.761C203.046 572.926 192.641 562.521 179.807 562.521C166.97 562.519 156.565 572.925 156.565 585.761Z" fill="#389FE5"/>
</g>
<path d="M170.023 583.547L177.075 592.323L189.59 579.199" stroke="white" stroke-width="1.3801" stroke-miterlimit="10" stroke-linecap="round" stroke-linejoin="round"/>
<path d="M398.579 763.741C399.245 768.871 395.625 773.57 390.495 774.236C385.364 774.902 380.666 771.282 380 766.151C379.334 761.021 382.954 756.323 388.084 755.658C393.216 754.991 397.914 758.611 398.579 763.741Z" fill="#9999F1"/>
<path d="M385.258 765.911L389.378 768.982L393.406 761.754" stroke="white" stroke-width="1.0564" stroke-miterlimit="10" stroke-linecap="round" stroke-linejoin="round"/>
<path d="M423.797 270.93C425.408 275.847 422.729 281.137 417.812 282.749C412.895 284.36 407.605 281.681 405.993 276.764C404.382 271.847 407.061 266.557 411.978 264.945C416.895 263.336 422.185 266.015 423.797 270.93Z" fill="#9999F1"/>
<path d="M411.115 275.548L415.734 277.797L418.345 269.945" stroke="white" stroke-width="1.0564" stroke-miterlimit="10" stroke-linecap="round" stroke-linejoin="round"/>
<path opacity="0.3" d="M767.673 206.064C767.673 207.966 766.131 209.509 764.228 209.509C762.326 209.509 760.783 207.966 760.783 206.064C760.783 204.161 762.326 202.619 764.228 202.619C766.132 202.619 767.673 204.161 767.673 206.064Z" fill="#9999F1"/>
<path d="M206.582 520.158C206.582 523.194 204.121 525.655 201.085 525.655C198.049 525.655 195.588 523.194 195.588 520.158C195.588 517.122 198.049 514.661 201.085 514.661C204.121 514.661 206.582 517.122 206.582 520.158Z" fill="#9999F1"/>
<path opacity="0.3" d="M1042.17 575.805C1042.17 580.474 1038.39 584.261 1033.72 584.261C1029.05 584.261 1025.26 580.476 1025.26 575.805C1025.26 571.135 1029.05 567.349 1033.72 567.349C1038.39 567.349 1042.17 571.135 1042.17 575.805Z" fill="#9999F1"/>
<path opacity="0.3" d="M117.713 459.025C117.713 463.694 113.929 467.481 109.259 467.481C104.59 467.481 100.803 463.694 100.803 459.025C100.803 454.355 104.59 450.569 109.259 450.569C113.929 450.571 117.713 454.355 117.713 459.025Z" fill="#9999F1"/>
<path opacity="0.3" d="M972.731 652.038C972.731 655.074 970.27 657.535 967.234 657.535C964.198 657.535 961.737 655.074 961.737 652.038C961.737 649.002 964.198 646.541 967.234 646.541C970.27 646.541 972.731 649.002 972.731 652.038Z" fill="#9999F1"/>
<path opacity="0.3" d="M543.716 225.973C543.716 229.009 541.255 231.47 538.219 231.47C535.183 231.47 532.722 229.009 532.722 225.973C532.722 222.937 535.183 220.476 538.219 220.476C541.255 220.476 543.716 222.937 543.716 225.973Z" fill="#9999F1"/>
<path opacity="0.2" d="M646.043 198.388C646.043 201.424 643.582 203.885 640.546 203.885C637.51 203.885 635.049 201.424 635.049 198.388C635.049 195.352 637.51 192.891 640.546 192.891C643.582 192.891 646.043 195.352 646.043 198.388Z" fill="#9999F1"/>
<path d="M102.535 384.612C101.93 384.612 101.437 384.119 101.437 383.513V375.764C101.437 375.158 101.93 374.666 102.535 374.666C103.143 374.666 103.634 375.157 103.634 375.764V383.513C103.636 384.121 103.143 384.612 102.535 384.612Z" fill="#9999F1"/>
<path d="M106.413 380.738H98.6619C98.0563 380.738 97.5635 380.245 97.5635 379.64C97.5635 379.034 98.0563 378.541 98.6619 378.541H106.413C107.019 378.541 107.511 379.034 107.511 379.64C107.511 380.245 107.019 380.738 106.413 380.738Z" fill="#9999F1"/>
<g opacity="0.3">
<path d="M163.344 189.855C162.738 189.855 162.245 189.362 162.245 188.757V181.007C162.245 180.402 162.738 179.909 163.344 179.909C163.949 179.909 164.442 180.4 164.442 181.007V188.757C164.444 189.362 163.951 189.855 163.344 189.855Z" fill="#9999F1"/>
<path d="M167.221 185.979H159.47C158.864 185.979 158.371 185.486 158.371 184.881C158.371 184.275 158.864 183.782 159.47 183.782H167.221C167.826 183.782 168.319 184.275 168.319 184.881C168.319 185.488 167.826 185.979 167.221 185.979Z" fill="#9999F1"/>
</g>
<path d="M808.111 282.604C807.505 282.604 807.012 282.111 807.012 281.506V273.756C807.012 273.151 807.505 272.658 808.111 272.658C808.716 272.658 809.209 273.151 809.209 273.756V281.506C809.209 282.111 808.716 282.604 808.111 282.604Z" fill="#9999F1"/>
<path d="M811.986 278.729H804.237C803.631 278.729 803.138 278.236 803.138 277.63C803.138 277.025 803.631 276.532 804.237 276.532H811.986C812.593 276.532 813.084 277.025 813.084 277.63C813.086 278.236 812.593 278.729 811.986 278.729Z" fill="#9999F1"/>
<path d="M1047.15 691.712C1046.54 691.712 1046.05 691.219 1046.05 690.613V682.864C1046.05 682.258 1046.54 681.765 1047.15 681.765C1047.75 681.765 1048.25 682.258 1048.25 682.864V690.613C1048.25 691.219 1047.75 691.712 1047.15 691.712Z" fill="#9999F1"/>
<path d="M1051.02 687.836H1043.27C1042.67 687.836 1042.17 687.343 1042.17 686.738C1042.17 686.132 1042.67 685.639 1043.27 685.639H1051.02C1051.63 685.639 1052.12 686.132 1052.12 686.738C1052.12 687.343 1051.63 687.836 1051.02 687.836Z" fill="#9999F1"/>
<path d="M788.585 381.758V440.862C788.585 441.861 787.777 442.668 786.778 442.668H728.312C727.335 442.668 726.525 441.861 726.525 440.862V381.758C726.525 380.78 727.333 379.971 728.312 379.971H786.778C787.777 379.971 788.585 380.779 788.585 381.758Z" fill="white"/>
<path d="M788.585 429.785V440.862C788.585 441.861 787.777 442.668 786.778 442.668H757.779L759.012 429.785L772.662 414.69L788.585 429.785Z" fill="#9999F1"/>
<path d="M780.464 442.67H728.312C727.335 442.67 726.525 441.862 726.525 440.863V429.786L746.936 408.366L780.464 442.67Z" fill="#8787DD"/>
<path d="M780.377 396.932C780.377 400.907 777.156 404.128 773.181 404.128C769.207 404.128 765.985 400.907 765.985 396.932C765.985 392.957 769.207 389.736 773.181 389.736C777.156 389.736 780.377 392.959 780.377 396.932Z" fill="#9999F1"/>
<path d="M787.254 452.806H727.856C727.121 452.806 726.525 452.211 726.525 451.476V448.658C726.525 447.923 727.121 447.328 727.856 447.328H787.254C787.989 447.328 788.585 447.923 788.585 448.658V451.476C788.585 452.211 787.989 452.806 787.254 452.806Z" fill="white"/>
<path d="M787.254 462.577H727.856C727.121 462.577 726.525 461.982 726.525 461.246V458.431C726.525 457.696 727.121 457.1 727.856 457.1H787.254C787.989 457.1 788.585 457.696 788.585 458.431V461.246C788.585 461.982 787.989 462.577 787.254 462.577Z" fill="white"/>
<defs>
<linearGradient id="paint0_linear_334_1859" x1="595.681" y1="359.138" x2="595.681" y2="713.917" gradientUnits="userSpaceOnUse">
<stop stop-color="white"/>
<stop offset="1" stop-color="white" stop-opacity="0"/>
</linearGradient>
<linearGradient id="paint1_linear_334_1859" x1="670.015" y1="359.138" x2="670.015" y2="713.917" gradientUnits="userSpaceOnUse">
<stop stop-color="white"/>
<stop offset="1" stop-color="white" stop-opacity="0"/>
</linearGradient>
</defs>
</svg>
