<svg width="18" height="20" viewBox="0 0 18 20" fill="none" xmlns="http://www.w3.org/2000/svg">
<path d="M12.7264 9.625C13.69 8.60143 14.2857 7.22786 14.2857 5.71429C14.2857 2.56357 11.7221 0 8.57143 0C5.42071 0 2.85714 2.56357 2.85714 5.71429C2.85714 7.22786 3.45286 8.60143 4.41643 9.625C1.56071 11.2186 0 14.5943 0 19.2857C0 19.6807 0.32 20 0.714286 20H16.4286C16.8236 20 17.1429 19.6807 17.1429 19.2857C17.1429 14.5936 15.5821 11.2186 12.7264 9.625ZM8.57143 1.42857C10.935 1.42857 12.8571 3.35071 12.8571 5.71429C12.8571 8.07786 10.935 10 8.57143 10C6.20786 10 4.28571 8.07786 4.28571 5.71429C4.28571 3.35071 6.20786 1.42857 8.57143 1.42857ZM1.44143 18.5714C1.55357 15.5471 2.43286 12.005 5.64357 10.6121C6.50071 11.1271 7.50071 11.4286 8.57143 11.4286C9.64214 11.4286 10.6421 11.1271 11.4993 10.6121C14.7093 12.0043 15.5893 15.5471 15.7007 18.5714H1.44143Z" fill="white"/>
</svg>
