<svg width="168" height="153" viewBox="0 0 168 153" fill="none" xmlns="http://www.w3.org/2000/svg">
<path d="M106.738 127.848C83.504 127.848 63.7595 112.696 56.8219 91.7622H28.8671V81.453H54.5285C54.2892 79.4211 54.1521 77.3606 54.1521 75.2649C54.1521 72.4611 54.3785 69.7084 54.8028 67.0195H28.8671V56.7102H57.5428C59.5363 51.444 62.3529 46.5828 65.8329 42.2767H28.8671V31.9675H76.9523V31.9611C85.4242 26.1143 95.6856 22.6822 106.735 22.6822C113.452 22.6822 119.873 23.9613 125.784 26.2674V0H0V131.972C0 143.315 9.27893 152.594 20.6216 152.594H105.165C116.508 152.594 125.787 143.315 125.787 131.972V124.262C119.876 126.569 113.456 127.848 106.738 127.848Z" fill="#626262"/>
<path d="M141.905 98.7056C146.386 91.9944 149.005 83.9339 149.005 75.261C149.005 51.9154 130.08 32.9907 106.732 32.9907C83.3795 32.9907 64.458 51.9154 64.458 75.261C64.458 98.6067 83.3763 117.535 106.732 117.535C116.189 117.535 124.891 114.393 131.93 109.146L157.796 135.011L168 124.804L141.905 98.7056ZM106.735 107.225C89.1115 107.225 74.7736 92.8875 74.7736 75.261C74.7736 57.6378 89.1115 43.2999 106.735 43.2999C124.358 43.2999 138.696 57.6378 138.696 75.261C138.696 92.8843 124.361 107.225 106.735 107.225Z" fill="#626262"/>
</svg>
