<svg width="40" height="40" viewBox="0 0 40 40" fill="none" xmlns="http://www.w3.org/2000/svg">
<path d="M6.66797 17.3333V16H5.33464V17.3333H6.66797ZM17.3346 17.3333V16H16.0013V17.3333H17.3346ZM17.3346 28H16.0013V29.3333H17.3346V28ZM36.0013 9.33333H37.3346V8.78133L36.9453 8.38933L36.0013 9.33333ZM28.0013 1.33333L28.9453 0.389333L28.5533 0H28.0013V1.33333ZM6.66797 18.6667H9.33464V16H6.66797V18.6667ZM8.0013 29.3333V22.6667H5.33464V29.3333H8.0013ZM8.0013 22.6667V17.3333H5.33464V22.6667H8.0013ZM9.33464 21.3333H6.66797V24H9.33464V21.3333ZM10.668 20C10.668 20.3536 10.5275 20.6928 10.2774 20.9428C10.0274 21.1929 9.68826 21.3333 9.33464 21.3333V24C10.3955 24 11.4129 23.5786 12.1631 22.8284C12.9132 22.0783 13.3346 21.0609 13.3346 20H10.668ZM9.33464 18.6667C9.68826 18.6667 10.0274 18.8071 10.2774 19.0572C10.5275 19.3072 10.668 19.6464 10.668 20H13.3346C13.3346 18.9391 12.9132 17.9217 12.1631 17.1716C11.4129 16.4214 10.3955 16 9.33464 16V18.6667ZM16.0013 17.3333V28H18.668V17.3333H16.0013ZM17.3346 29.3333H20.0013V26.6667H17.3346V29.3333ZM24.0013 25.3333V20H21.3346V25.3333H24.0013ZM20.0013 16H17.3346V18.6667H20.0013V16ZM24.0013 20C24.0013 18.9391 23.5799 17.9217 22.8297 17.1716C22.0796 16.4214 21.0622 16 20.0013 16V18.6667C20.3549 18.6667 20.6941 18.8071 20.9441 19.0572C21.1942 19.3072 21.3346 19.6464 21.3346 20H24.0013ZM20.0013 29.3333C21.0622 29.3333 22.0796 28.9119 22.8297 28.1618C23.5799 27.4116 24.0013 26.3942 24.0013 25.3333H21.3346C21.3346 25.687 21.1942 26.0261 20.9441 26.2761C20.6941 26.5262 20.3549 26.6667 20.0013 26.6667V29.3333ZM26.668 16V29.3333H29.3346V16H26.668ZM28.0013 18.6667H34.668V16H28.0013V18.6667ZM28.0013 24H32.0013V21.3333H28.0013V24ZM5.33464 13.3333V4H2.66797V13.3333H5.33464ZM34.668 9.33333V13.3333H37.3346V9.33333H34.668ZM6.66797 2.66667H28.0013V0H6.66797V2.66667ZM27.0573 2.27733L35.0573 10.2773L36.9453 8.38933L28.9453 0.389333L27.0573 2.27733ZM5.33464 4C5.33464 3.64638 5.47511 3.30724 5.72516 3.05719C5.97521 2.80714 6.31435 2.66667 6.66797 2.66667V0C5.6071 0 4.58969 0.421427 3.83954 1.17157C3.0894 1.92172 2.66797 2.93913 2.66797 4H5.33464ZM2.66797 32V36H5.33464V32H2.66797ZM6.66797 40H33.3346V37.3333H6.66797V40ZM37.3346 36V32H34.668V36H37.3346ZM33.3346 40C34.3955 40 35.4129 39.5786 36.1631 38.8284C36.9132 38.0783 37.3346 37.0609 37.3346 36H34.668C34.668 36.3536 34.5275 36.6928 34.2774 36.9428C34.0274 37.1929 33.6883 37.3333 33.3346 37.3333V40ZM2.66797 36C2.66797 37.0609 3.0894 38.0783 3.83954 38.8284C4.58969 39.5786 5.6071 40 6.66797 40V37.3333C6.31435 37.3333 5.97521 37.1929 5.72516 36.9428C5.47511 36.6928 5.33464 36.3536 5.33464 36H2.66797Z" fill="black"/>
</svg>
