<svg width="20" height="20" viewBox="0 0 20 20" fill="none" xmlns="http://www.w3.org/2000/svg">
<g clip-path="url(#clip0_1032_57)">
<path d="M14.6562 13.0813C14.482 12.9065 14.275 12.7678 14.0471 12.6731C13.8192 12.5785 13.5749 12.5298 13.3281 12.5298C13.0813 12.5298 12.837 12.5785 12.6091 12.6731C12.3812 12.7678 12.1742 12.9065 12 13.0813L11.0937 13.9875C10.0734 13.3399 9.12799 12.5811 8.27498 11.725C7.42069 10.8704 6.66204 9.92524 6.01248 8.90628L6.91873 8.00003C7.09353 7.82583 7.23222 7.61885 7.32686 7.39094C7.42149 7.16303 7.47021 6.91868 7.47021 6.6719C7.47021 6.42513 7.42149 6.18078 7.32686 5.95287C7.23222 5.72496 7.09353 5.51797 6.91873 5.34378L5.14998 3.58128C4.97825 3.4059 4.77301 3.26684 4.54646 3.17235C4.31991 3.07787 4.07669 3.02989 3.83123 3.03128C3.58403 3.03067 3.33915 3.07896 3.11068 3.17335C2.88222 3.26774 2.67467 3.40637 2.49998 3.58128L1.64998 4.42503C1.24484 4.86063 0.942462 5.3815 0.765083 5.94932C0.587704 6.51715 0.53983 7.11752 0.624979 7.70628C0.824979 10.05 2.36248 12.8688 4.73123 15.2438C7.09998 17.6188 9.94998 19.15 12.2937 19.375C12.4686 19.3844 12.6439 19.3844 12.8187 19.375C13.3232 19.3962 13.8269 19.3165 14.3002 19.1404C14.7735 18.9644 15.2069 18.6957 15.575 18.35L16.4187 17.5C16.5936 17.3253 16.7323 17.1178 16.8267 16.8893C16.9211 16.6609 16.9693 16.416 16.9687 16.1688C16.9701 15.9233 16.9221 15.6801 16.8277 15.4535C16.7332 15.227 16.5941 15.0218 16.4187 14.85L14.6562 13.0813ZM15.5375 16.6188L14.6875 17.4625C14.3732 17.7245 14.0063 17.9158 13.6117 18.0236C13.217 18.1315 12.8038 18.1533 12.4 18.0875C10.3687 17.9125 7.78123 16.475 5.64373 14.3375C3.50623 12.2 2.06873 9.63128 1.87498 7.60003C1.80758 7.19622 1.82855 6.78261 1.93645 6.38769C2.04435 5.99278 2.23661 5.62596 2.49998 5.31253L3.38123 4.46253C3.43963 4.4046 3.50889 4.35877 3.58504 4.32767C3.66119 4.29657 3.74273 4.2808 3.82498 4.28128C3.90723 4.2808 3.98877 4.29657 4.06492 4.32767C4.14107 4.35877 4.21033 4.4046 4.26873 4.46253L6.03748 6.25003C6.15389 6.36713 6.21922 6.52554 6.21922 6.69065C6.21922 6.85577 6.15389 7.01418 6.03748 7.13128L4.78748 8.38128C4.68967 8.47861 4.62681 8.60558 4.60872 8.74238C4.59063 8.87918 4.61833 9.01812 4.68748 9.13753C5.43585 10.4116 6.34544 11.5837 7.39373 12.625C8.43503 13.6733 9.6072 14.5829 10.8812 15.3313C11.0006 15.4004 11.1396 15.4281 11.2764 15.41C11.4132 15.3919 11.5401 15.3291 11.6375 15.2313L12.8875 13.9813C13.0046 13.8649 13.163 13.7995 13.3281 13.7995C13.4932 13.7995 13.6516 13.8649 13.7687 13.9813L15.5375 15.75C15.5954 15.8084 15.6412 15.8777 15.6723 15.9538C15.7034 16.03 15.7192 16.1115 15.7187 16.1938C15.7148 16.3534 15.65 16.5055 15.5375 16.6188Z" fill="#6F3FBA"/>
<path d="M16.625 3.36877C15.7564 2.49688 14.7238 1.80554 13.5868 1.33463C12.4497 0.863722 11.2307 0.622549 10 0.625019C9.83424 0.625019 9.67527 0.690867 9.55806 0.808077C9.44085 0.925287 9.375 1.08426 9.375 1.25002C9.375 1.41578 9.44085 1.57475 9.55806 1.69196C9.67527 1.80917 9.83424 1.87502 10 1.87502C11.0728 1.87498 12.135 2.0874 13.1253 2.50001C14.1155 2.91262 15.0143 3.51726 15.7697 4.27903C16.5251 5.0408 17.1221 5.94463 17.5264 6.93835C17.9306 7.93207 18.1341 8.99601 18.125 10.0688C18.125 10.2345 18.1908 10.3935 18.3081 10.5107C18.4253 10.6279 18.5842 10.6938 18.75 10.6938C18.9158 10.6938 19.0747 10.6279 19.1919 10.5107C19.3092 10.3935 19.375 10.2345 19.375 10.0688C19.387 8.82498 19.1498 7.59138 18.6775 6.44068C18.2052 5.28999 17.5073 4.2455 16.625 3.36877Z" fill="#6F3FBA"/>
<path d="M13.0688 6.9437C13.4235 7.29625 13.7041 7.7162 13.8941 8.17881C14.0841 8.64142 14.1796 9.13737 14.175 9.63745C14.175 9.80321 14.2409 9.96218 14.3581 10.0794C14.4753 10.1966 14.6343 10.2625 14.8 10.2625C14.9658 10.2625 15.1248 10.1966 15.242 10.0794C15.3592 9.96218 15.425 9.80321 15.425 9.63745C15.4333 8.9756 15.3101 8.3187 15.0625 7.70483C14.815 7.09097 14.448 6.53238 13.9829 6.06144C13.5177 5.59051 12.9638 5.21662 12.353 4.96144C11.7423 4.70627 11.087 4.5749 10.425 4.57495C10.2593 4.57495 10.1003 4.6408 9.98311 4.75801C9.8659 4.87522 9.80005 5.03419 9.80005 5.19995C9.80005 5.36571 9.8659 5.52468 9.98311 5.64189C10.1003 5.7591 10.2593 5.82495 10.425 5.82495C10.9176 5.82866 11.4046 5.92937 11.8582 6.12133C12.3118 6.31329 12.7232 6.59273 13.0688 6.9437Z" fill="#6F3FBA"/>
</g>
<defs>
<clipPath id="clip0_1032_57">
<rect width="20" height="20" fill="white"/>
</clipPath>
</defs>
</svg>
