<svg width="40" height="40" viewBox="0 0 40 40" fill="none" xmlns="http://www.w3.org/2000/svg">
<path d="M29.3125 26.1626C28.9641 25.813 28.5501 25.5356 28.0943 25.3463C27.6385 25.157 27.1498 25.0596 26.6562 25.0596C26.1627 25.0596 25.674 25.157 25.2181 25.3463C24.7623 25.5356 24.3483 25.813 24 26.1626L22.1875 27.9751C20.1467 26.6799 18.256 25.1623 16.55 23.4501C14.8414 21.7408 13.3241 19.8505 12.025 17.8126L13.8375 16.0001C14.1871 15.6517 14.4644 15.2377 14.6537 14.7819C14.843 14.3261 14.9404 13.8374 14.9404 13.3438C14.9404 12.8503 14.843 12.3616 14.6537 11.9057C14.4644 11.4499 14.1871 11.0359 13.8375 10.6876L10.3 7.16256C9.95649 6.8118 9.54601 6.53367 9.09292 6.34471C8.63983 6.15574 8.15337 6.05979 7.66246 6.06256C7.16806 6.06135 6.6783 6.15791 6.22137 6.34669C5.76443 6.53547 5.34933 6.81275 4.99996 7.16256L3.29996 8.85006C2.48967 9.72127 1.88492 10.763 1.53017 11.8986C1.17541 13.0343 1.07966 14.235 1.24996 15.4126C1.64996 20.1001 4.72496 25.7376 9.46246 30.4876C14.2 35.2376 19.9 38.3001 24.5875 38.7501C24.9372 38.7687 25.2877 38.7687 25.6375 38.7501C26.6465 38.7924 27.6538 38.6329 28.6004 38.2809C29.547 37.9289 30.4138 37.3914 31.15 36.7001L32.8375 35.0001C33.1873 34.6507 33.4645 34.2356 33.6533 33.7786C33.8421 33.3217 33.9387 32.832 33.9375 32.3376C33.9402 31.8466 33.8443 31.3602 33.6553 30.9071C33.4663 30.454 33.1882 30.0435 32.8375 29.7001L29.3125 26.1626ZM31.075 33.2376L29.375 34.9251C28.7464 35.4489 28.0126 35.8316 27.2233 36.0473C26.434 36.2629 25.6076 36.3065 24.8 36.1751C20.7375 35.8251 15.5625 32.9501 11.2875 28.6751C7.01246 24.4001 4.13746 19.2626 3.74996 15.2001C3.61516 14.3924 3.65711 13.5652 3.87291 12.7754C4.08871 11.9856 4.47323 11.2519 4.99996 10.6251L6.76246 8.92506C6.87926 8.80921 7.01778 8.71755 7.17008 8.65534C7.32237 8.59314 7.48545 8.56161 7.64996 8.56256C7.81447 8.56161 7.97755 8.59314 8.12984 8.65534C8.28214 8.71755 8.42066 8.80921 8.53746 8.92506L12.075 12.5001C12.3078 12.7343 12.4384 13.0511 12.4384 13.3813C12.4384 13.7115 12.3078 14.0284 12.075 14.2626L9.57496 16.7626C9.37933 16.9572 9.25362 17.2112 9.21745 17.4848C9.18127 17.7584 9.23665 18.0362 9.37496 18.2751C10.8717 20.8231 12.6909 23.1675 14.7875 25.2501C16.8701 27.3466 19.2144 29.1658 21.7625 30.6626C22.0013 30.8009 22.2792 30.8562 22.5528 30.8201C22.8264 30.7839 23.0803 30.6582 23.275 30.4626L25.775 27.9626C26.0092 27.7297 26.326 27.5991 26.6562 27.5991C26.9864 27.5991 27.3033 27.7297 27.5375 27.9626L31.075 31.5001C31.1908 31.6169 31.2825 31.7554 31.3447 31.9077C31.4069 32.06 31.4384 32.223 31.4375 32.3876C31.4296 32.7068 31.2999 33.0109 31.075 33.2376Z" fill="#232323"/>
<path d="M33.25 6.73754C31.5128 4.99375 29.4477 3.61109 27.1736 2.66927C24.8995 1.72744 22.4614 1.2451 20 1.25004C19.6685 1.25004 19.3505 1.38173 19.1161 1.61615C18.8817 1.85057 18.75 2.16852 18.75 2.50004C18.75 2.83156 18.8817 3.1495 19.1161 3.38392C19.3505 3.61834 19.6685 3.75004 20 3.75004C22.1456 3.74996 24.27 4.17479 26.2505 5.00002C28.2311 5.82524 30.0286 7.03452 31.5394 8.55806C33.0501 10.0816 34.2442 11.8893 35.0527 13.8767C35.8612 15.8641 36.2682 17.992 36.25 20.1375C36.25 20.4691 36.3817 20.787 36.6161 21.0214C36.8505 21.2558 37.1685 21.3875 37.5 21.3875C37.8315 21.3875 38.1495 21.2558 38.3839 21.0214C38.6183 20.787 38.75 20.4691 38.75 20.1375C38.7739 17.65 38.2996 15.1828 37.355 12.8814C36.4104 10.58 35.0147 8.49099 33.25 6.73754Z" fill="#232323"/>
<path d="M26.1375 13.8875C26.8469 14.5926 27.4081 15.4325 27.788 16.3577C28.168 17.283 28.3591 18.2749 28.35 19.275C28.35 19.6065 28.4817 19.9245 28.7161 20.1589C28.9505 20.3933 29.2685 20.525 29.6 20.525C29.9315 20.525 30.2494 20.3933 30.4839 20.1589C30.7183 19.9245 30.85 19.6065 30.85 19.275C30.8665 17.9513 30.6201 16.6375 30.1249 15.4098C29.6298 14.1821 28.8958 13.0649 27.9656 12.123C27.0354 11.1811 25.9274 10.4334 24.7059 9.92301C23.4844 9.41266 22.1738 9.14992 20.85 9.15002C20.5185 9.15002 20.2005 9.28172 19.9661 9.51614C19.7317 9.75056 19.6 10.0685 19.6 10.4C19.6 10.7315 19.7317 11.0495 19.9661 11.2839C20.2005 11.5183 20.5185 11.65 20.85 11.65C21.8351 11.6574 22.8091 11.8589 23.7163 12.2428C24.6236 12.6267 25.4463 13.1856 26.1375 13.8875Z" fill="#232323"/>
</svg>
