<svg width="40" height="40" viewBox="0 0 40 40" fill="none" xmlns="http://www.w3.org/2000/svg">
<path d="M0 9.375C0 6.96 1.96 5 4.375 5H35.625C38.04 5 40 6.96 40 9.375V30.625C40 31.7853 39.5391 32.8981 38.7186 33.7186C37.8981 34.5391 36.7853 35 35.625 35H4.375C3.21468 35 2.10188 34.5391 1.28141 33.7186C0.460936 32.8981 0 31.7853 0 30.625L0 9.375ZM4.375 8.75C4.20924 8.75 4.05027 8.81585 3.93306 8.93306C3.81585 9.05027 3.75 9.20924 3.75 9.375V30.625C3.75 30.97 4.03 31.25 4.375 31.25H35.625C35.7908 31.25 35.9497 31.1842 36.0669 31.0669C36.1842 30.9497 36.25 30.7908 36.25 30.625V9.375C36.25 9.20924 36.1842 9.05027 36.0669 8.93306C35.9497 8.81585 35.7908 8.75 35.625 8.75H4.375Z" fill="black"/>
<path d="M15 26.3975V13.605C14.9996 13.4941 15.0287 13.3851 15.0844 13.2892C15.14 13.1933 15.2202 13.1139 15.3166 13.0592C15.4131 13.0045 15.5223 12.9764 15.6332 12.9779C15.744 12.9793 15.8525 13.0103 15.9475 13.0675L26.6075 19.465C26.6996 19.5206 26.7758 19.5991 26.8287 19.6928C26.8816 19.7866 26.9094 19.8924 26.9094 20C26.9094 20.1076 26.8816 20.2134 26.8287 20.3071C26.7758 20.4009 26.6996 20.4793 26.6075 20.535L15.9475 26.9325C15.8527 26.9896 15.7445 27.0205 15.6338 27.0221C15.5231 27.0236 15.4141 26.9958 15.3177 26.9413C15.2213 26.8869 15.1412 26.8079 15.0853 26.7124C15.0295 26.6168 15.0001 26.5081 15 26.3975Z" fill="black"/>
</svg>
